<svg data-v-fde0c5aa="" xmlns="http://www.w3.org/2000/svg" viewBox="0 0 300 300" class="iconLeft"><!----><defs data-v-fde0c5aa=""><!----></defs><rect data-v-fde0c5aa="" fill="rgba(0,0,0,0)" x="0" y="0" width="300px" height="300px" class="logo-background-square"></rect><defs data-v-fde0c5aa=""><!----></defs><g data-v-fde0c5aa="" id="c6232d40-1aee-438c-95a3-8deb5bf2ffb9" fill="#FFFFFF" transform="matrix(1.7708884288858664,0,0,1.7708884288858664,99.15019590625711,137.84285091881003)"><path d="M7.08 9.25L7.08 9.25Q7.08 10.12 6.65 10.86L6.65 10.86L6.65 10.86Q6.22 11.61 5.47 12.04L5.47 12.04L5.47 12.04Q4.73 12.47 3.86 12.47L3.86 12.47L3.86 12.47Q2.98 12.47 2.24 12.03L2.24 12.03L2.24 12.03Q1.50 11.59 1.06 10.86L1.06 10.86L1.06 10.86Q0.63 10.12 0.63 9.25L0.63 9.25L0.63 9.25Q0.63 9.07 0.75 8.95L0.75 8.95L0.75 8.95Q0.87 8.83 1.05 8.83L1.05 8.83L1.05 8.83Q1.23 8.83 1.35 8.95L1.35 8.95L1.35 8.95Q1.47 9.07 1.47 9.25L1.47 9.25L1.47 9.25Q1.47 9.90 1.80 10.44L1.80 10.44L1.80 10.44Q2.13 10.99 2.67 11.31L2.67 11.31L2.67 11.31Q3.22 11.63 3.86 11.63L3.86 11.63L3.86 11.63Q4.51 11.63 5.05 11.31L5.05 11.31L5.05 11.31Q5.60 10.99 5.92 10.44L5.92 10.44L5.92 10.44Q6.24 9.88 6.24 9.25L6.24 9.25L6.24 1.82L6.24 1.82Q6.24 1.64 6.37 1.52L6.37 1.52L6.37 1.52Q6.50 1.40 6.66 1.40L6.66 1.40L6.66 1.40Q6.85 1.40 6.96 1.52L6.96 1.52L6.96 1.52Q7.08 1.64 7.08 1.82L7.08 1.82L7.08 9.25ZM16.23 4.68L16.23 4.68Q16.42 4.68 16.53 4.79L16.53 4.79L16.53 4.79Q16.65 4.90 16.65 5.10L16.65 5.10L16.65 11.91L16.65 11.91Q16.65 12.10 16.53 12.21L16.53 12.21L16.53 12.21Q16.42 12.33 16.23 12.33L16.23 12.33L16.23 12.33Q16.04 12.33 15.93 12.21L15.93 12.21L15.93 12.21Q15.81 12.10 15.81 11.91L15.81 11.91L15.81 11.19L15.81 11.19Q15.33 11.77 14.64 12.10L14.64 12.10L14.64 12.10Q13.96 12.43 13.15 12.43L13.15 12.43L13.15 12.43Q12.12 12.43 11.32 12.01L11.32 12.01L11.32 12.01Q10.51 11.59 10.06 10.79L10.06 10.79L10.06 10.79Q9.60 9.98 9.60 8.86L9.60 8.86L9.60 5.10L9.60 5.10Q9.60 4.91 9.72 4.79L9.72 4.79L9.72 4.79Q9.84 4.68 10.02 4.68L10.02 4.68L10.02 4.68Q10.21 4.68 10.32 4.79L10.32 4.79L10.32 4.79Q10.44 4.91 10.44 5.10L10.44 5.10L10.44 8.86L10.44 8.86Q10.44 10.19 11.19 10.89L11.19 10.89L11.19 10.89Q11.94 11.59 13.15 11.59L13.15 11.59L13.15 11.59Q13.89 11.59 14.50 11.30L14.50 11.30L14.50 11.30Q15.11 11.02 15.46 10.51L15.46 10.51L15.46 10.51Q15.81 10.00 15.81 9.38L15.81 9.38L15.81 5.10L15.81 5.10Q15.81 4.90 15.93 4.79L15.93 4.79L15.93 4.79Q16.04 4.68 16.23 4.68L16.23 4.68ZM22.67 4.59L22.67 4.59Q23.76 4.59 24.65 5.10L24.65 5.10L24.65 5.10Q25.55 5.61 26.06 6.51L26.06 6.51L26.06 6.51Q26.57 7.41 26.57 8.51L26.57 8.51L26.57 11.91L26.57 11.91Q26.57 12.10 26.46 12.21L26.46 12.21L26.46 12.21Q26.35 12.33 26.15 12.33L26.15 12.33L26.15 12.33Q25.97 12.33 25.85 12.21L25.85 12.21L25.85 12.21Q25.73 12.10 25.73 11.91L25.73 11.91L25.73 10.82L25.73 10.82Q25.27 11.56 24.46 11.99L24.46 11.99L24.46 11.99Q23.66 12.42 22.67 12.42L22.67 12.42L22.67 12.42Q21.56 12.42 20.66 11.91L20.66 11.91L20.66 11.91Q19.77 11.40 19.26 10.50L19.26 10.50L19.26 10.50Q18.75 9.60 18.75 8.51L18.75 8.51L18.75 8.51Q18.75 7.41 19.26 6.51L19.26 6.51L19.26 6.51Q19.77 5.61 20.66 5.10L20.66 5.10L20.66 5.10Q21.56 4.59 22.67 4.59L22.67 4.59ZM22.67 11.63L22.67 11.63Q23.53 11.63 24.23 11.23L24.23 11.23L24.23 11.23Q24.93 10.82 25.33 10.11L25.33 10.11L25.33 10.11Q25.73 9.39 25.73 8.51L25.73 8.51L25.73 8.51Q25.73 7.63 25.33 6.92L25.33 6.92L25.33 6.92Q24.93 6.20 24.23 5.79L24.23 5.79L24.23 5.79Q23.53 5.38 22.67 5.38L22.67 5.38L22.67 5.38Q21.80 5.38 21.10 5.79L21.10 5.79L21.10 5.79Q20.40 6.20 19.99 6.92L19.99 6.92L19.99 6.92Q19.59 7.63 19.59 8.51L19.59 8.51L19.59 8.51Q19.59 9.39 19.99 10.11L19.99 10.11L19.99 10.11Q20.40 10.82 21.10 11.23L21.10 11.23L21.10 11.23Q21.80 11.63 22.67 11.63L22.67 11.63ZM32.17 4.58L32.17 4.58Q33.19 4.58 34.00 5.00L34.00 5.00L34.00 5.00Q34.80 5.42 35.26 6.22L35.26 6.22L35.26 6.22Q35.71 7.03 35.71 8.15L35.71 8.15L35.71 11.91L35.71 11.91Q35.71 12.10 35.59 12.21L35.59 12.21L35.59 12.21Q35.48 12.33 35.29 12.33L35.29 12.33L35.29 12.33Q35.11 12.33 34.99 12.21L34.99 12.21L34.99 12.21Q34.87 12.10 34.87 11.91L34.87 11.91L34.87 8.15L34.87 8.15Q34.87 6.82 34.13 6.12L34.13 6.12L34.13 6.12Q33.38 5.42 32.17 5.42L32.17 5.42L32.17 5.42Q31.43 5.42 30.82 5.70L30.82 5.70L30.82 5.70Q30.21 5.99 29.86 6.50L29.86 6.50L29.86 6.50Q29.51 7.01 29.51 7.63L29.51 7.63L29.51 11.91L29.51 11.91Q29.51 12.10 29.40 12.21L29.40 12.21L29.40 12.21Q29.29 12.33 29.09 12.33L29.09 12.33L29.09 12.33Q28.91 12.33 28.79 12.21L28.79 12.21L28.79 12.21Q28.67 12.10 28.67 11.91L28.67 11.91L28.67 5.10L28.67 5.10Q28.67 4.90 28.79 4.79L28.79 4.79L28.79 4.79Q28.91 4.68 29.09 4.68L29.09 4.68L29.09 4.68Q29.29 4.68 29.40 4.79L29.40 4.79L29.40 4.79Q29.51 4.90 29.51 5.10L29.51 5.10L29.51 5.82L29.51 5.82Q29.99 5.24 30.67 4.91L30.67 4.91L30.67 4.91Q31.36 4.58 32.17 4.58L32.17 4.58ZM45.49 1.26L45.49 1.26Q46.51 1.26 47.36 1.75L47.36 1.75L47.36 1.75Q48.22 2.24 48.62 2.93L48.62 2.93L48.62 2.93Q48.68 3.02 48.68 3.15L48.68 3.15L48.68 3.15Q48.68 3.26 48.62 3.35L48.62 3.35L48.62 3.35Q48.55 3.44 48.44 3.50L48.44 3.50L48.44 3.50Q48.38 3.53 48.27 3.53L48.27 3.53L48.27 3.53Q48.02 3.53 47.88 3.32L47.88 3.32L47.88 3.32Q47.05 2.10 45.49 2.10L45.49 2.10L45.49 2.10Q44.32 2.10 43.67 2.63L43.67 2.63L43.67 2.63Q43.02 3.15 43.02 4.09L43.02 4.09L43.02 4.09Q43.02 4.87 43.67 5.40L43.67 5.40L43.67 5.40Q44.31 5.94 45.65 6.16L45.65 6.16L45.65 6.16Q47.42 6.45 48.23 7.24L48.23 7.24L48.23 7.24Q49.04 8.04 49.04 9.32L49.04 9.32L49.04 9.32Q49.04 10.29 48.62 11.00L48.62 11.00L48.62 11.00Q48.19 11.72 47.41 12.10L47.41 12.10L47.41 12.10Q46.63 12.47 45.61 12.47L45.61 12.47L45.61 12.47Q44.30 12.47 43.33 11.93L43.33 11.93L43.33 11.93Q42.36 11.40 41.89 10.46L41.89 10.46L41.89 10.46Q41.85 10.37 41.85 10.29L41.85 10.29L41.85 10.29Q41.85 10.12 41.97 10.01L41.97 10.01L41.97 10.01Q42.08 9.90 42.28 9.90L42.28 9.90L42.28 9.90Q42.56 9.90 42.69 10.16L42.69 10.16L42.69 10.16Q43.06 10.86 43.81 11.25L43.81 11.25L43.81 11.25Q44.56 11.63 45.61 11.63L45.61 11.63L45.61 11.63Q46.82 11.63 47.51 11.03L47.51 11.03L47.51 11.03Q48.20 10.43 48.20 9.32L48.20 9.32L48.20 9.32Q48.20 8.37 47.52 7.75L47.52 7.75L47.52 7.75Q46.84 7.13 45.51 6.94L45.51 6.94L45.51 6.94Q43.96 6.72 43.07 5.93L43.07 5.93L43.07 5.93Q42.18 5.14 42.18 4.00L42.18 4.00L42.18 4.00Q42.18 3.19 42.60 2.57L42.60 2.57L42.60 2.57Q43.01 1.95 43.76 1.60L43.76 1.60L43.76 1.60Q44.51 1.26 45.49 1.26L45.49 1.26ZM54.71 4.59L54.71 4.59Q55.80 4.59 56.70 5.10L56.70 5.10L56.70 5.10Q57.60 5.61 58.11 6.51L58.11 6.51L58.11 6.51Q58.62 7.41 58.62 8.51L58.62 8.51L58.62 8.51Q58.62 9.60 58.11 10.50L58.11 10.50L58.11 10.50Q57.60 11.40 56.70 11.91L56.70 11.91L56.70 11.91Q55.80 12.42 54.71 12.42L54.71 12.42L54.71 12.42Q53.61 12.42 52.71 11.91L52.71 11.91L52.71 11.91Q51.81 11.40 51.30 10.50L51.30 10.50L51.30 10.50Q50.79 9.60 50.79 8.51L50.79 8.51L50.79 8.51Q50.79 7.41 51.30 6.51L51.30 6.51L51.30 6.51Q51.81 5.61 52.71 5.10L52.71 5.10L52.71 5.10Q53.61 4.59 54.71 4.59L54.71 4.59ZM54.71 5.38L54.71 5.38Q53.84 5.38 53.14 5.79L53.14 5.79L53.14 5.79Q52.44 6.20 52.04 6.92L52.04 6.92L52.04 6.92Q51.63 7.63 51.63 8.51L51.63 8.51L51.63 8.51Q51.63 9.39 52.04 10.11L52.04 10.11L52.04 10.11Q52.44 10.82 53.14 11.23L53.14 11.23L53.14 11.23Q53.84 11.63 54.71 11.63L54.71 11.63L54.71 11.63Q55.58 11.63 56.28 11.23L56.28 11.23L56.28 11.23Q56.98 10.82 57.38 10.11L57.38 10.11L57.38 10.11Q57.78 9.39 57.78 8.51L57.78 8.51L57.78 8.51Q57.78 7.63 57.38 6.92L57.38 6.92L57.38 6.92Q56.98 6.20 56.28 5.79L56.28 5.79L56.28 5.79Q55.58 5.38 54.71 5.38L54.71 5.38ZM60.44 1.82L60.44 1.82Q60.44 1.62 60.56 1.51L60.56 1.51L60.56 1.51Q60.68 1.40 60.86 1.40L60.86 1.40L60.86 1.40Q61.05 1.40 61.17 1.51L61.17 1.51L61.17 1.51Q61.28 1.62 61.28 1.82L61.28 1.82L61.28 10.02L61.28 10.02Q61.28 10.67 61.55 11.08L61.55 11.08L61.55 11.08Q61.82 11.49 62.26 11.49L62.26 11.49L62.61 11.49L62.61 11.49Q62.76 11.49 62.86 11.61L62.86 11.61L62.86 11.61Q62.96 11.72 62.96 11.91L62.96 11.91L62.96 11.91Q62.96 12.10 62.85 12.21L62.85 12.21L62.85 12.21Q62.73 12.33 62.54 12.33L62.54 12.33L62.26 12.33L62.26 12.33Q61.46 12.33 60.95 11.69L60.95 11.69L60.95 11.69Q60.44 11.05 60.44 10.02L60.44 10.02L60.44 1.82ZM68.00 4.59L68.00 4.59Q69.09 4.59 69.99 5.10L69.99 5.10L69.99 5.10Q70.88 5.61 71.39 6.51L71.39 6.51L71.39 6.51Q71.90 7.41 71.90 8.51L71.90 8.51L71.90 11.91L71.90 11.91Q71.90 12.10 71.79 12.21L71.79 12.21L71.79 12.21Q71.68 12.33 71.48 12.33L71.48 12.33L71.48 12.33Q71.30 12.33 71.18 12.21L71.18 12.21L71.18 12.21Q71.06 12.10 71.06 11.91L71.06 11.91L71.06 10.82L71.06 10.82Q70.60 11.56 69.80 11.99L69.80 11.99L69.80 11.99Q68.99 12.42 68.00 12.42L68.00 12.42L68.00 12.42Q66.89 12.42 66.00 11.91L66.00 11.91L66.00 11.91Q65.10 11.40 64.59 10.50L64.59 10.50L64.59 10.50Q64.08 9.60 64.08 8.51L64.08 8.51L64.08 8.51Q64.08 7.41 64.59 6.51L64.59 6.51L64.59 6.51Q65.10 5.61 66.00 5.10L66.00 5.10L66.00 5.10Q66.89 4.59 68.00 4.59L68.00 4.59ZM68.00 11.63L68.00 11.63Q68.87 11.63 69.57 11.23L69.57 11.23L69.57 11.23Q70.27 10.82 70.67 10.11L70.67 10.11L70.67 10.11Q71.06 9.39 71.06 8.51L71.06 8.51L71.06 8.51Q71.06 7.63 70.67 6.92L70.67 6.92L70.67 6.92Q70.27 6.20 69.57 5.79L69.57 5.79L69.57 5.79Q68.87 5.38 68.00 5.38L68.00 5.38L68.00 5.38Q67.13 5.38 66.43 5.79L66.43 5.79L66.43 5.79Q65.73 6.20 65.32 6.92L65.32 6.92L65.32 6.92Q64.92 7.63 64.92 8.51L64.92 8.51L64.92 8.51Q64.92 9.39 65.32 10.11L65.32 10.11L65.32 10.11Q65.73 10.82 66.43 11.23L66.43 11.23L66.43 11.23Q67.13 11.63 68.00 11.63L68.00 11.63ZM77.50 4.58L77.50 4.58Q78.53 4.58 79.33 5.00L79.33 5.00L79.33 5.00Q80.14 5.42 80.59 6.22L80.59 6.22L80.59 6.22Q81.05 7.03 81.05 8.15L81.05 8.15L81.05 11.91L81.05 11.91Q81.05 12.10 80.93 12.21L80.93 12.21L80.93 12.21Q80.81 12.33 80.63 12.33L80.63 12.33L80.63 12.33Q80.44 12.33 80.33 12.21L80.33 12.21L80.33 12.21Q80.21 12.10 80.21 11.91L80.21 11.91L80.21 8.15L80.21 8.15Q80.21 6.82 79.46 6.12L79.46 6.12L79.46 6.12Q78.71 5.42 77.50 5.42L77.50 5.42L77.50 5.42Q76.76 5.42 76.15 5.70L76.15 5.70L76.15 5.70Q75.54 5.99 75.19 6.50L75.19 6.50L75.19 6.50Q74.84 7.01 74.84 7.63L74.84 7.63L74.84 11.91L74.84 11.91Q74.84 12.10 74.73 12.21L74.73 12.21L74.73 12.21Q74.62 12.33 74.42 12.33L74.42 12.33L74.42 12.33Q74.24 12.33 74.12 12.21L74.12 12.21L74.12 12.21Q74.00 12.10 74.00 11.91L74.00 11.91L74.00 5.10L74.00 5.10Q74.00 4.90 74.12 4.79L74.12 4.79L74.12 4.79Q74.24 4.68 74.42 4.68L74.42 4.68L74.42 4.68Q74.62 4.68 74.73 4.79L74.73 4.79L74.73 4.79Q74.84 4.90 74.84 5.10L74.84 5.10L74.84 5.82L74.84 5.82Q75.32 5.24 76.01 4.91L76.01 4.91L76.01 4.91Q76.69 4.58 77.50 4.58L77.50 4.58ZM86.93 4.59L86.93 4.59Q88.02 4.59 88.91 5.10L88.91 5.10L88.91 5.10Q89.81 5.61 90.32 6.51L90.32 6.51L90.32 6.51Q90.83 7.41 90.83 8.51L90.83 8.51L90.83 8.51Q90.83 9.60 90.32 10.50L90.32 10.50L90.32 10.50Q89.81 11.40 88.91 11.91L88.91 11.91L88.91 11.91Q88.02 12.42 86.93 12.42L86.93 12.42L86.93 12.42Q85.82 12.42 84.92 11.91L84.92 11.91L84.92 11.91Q84.03 11.40 83.52 10.50L83.52 10.50L83.52 10.50Q83.01 9.60 83.01 8.51L83.01 8.51L83.01 8.51Q83.01 7.41 83.52 6.51L83.52 6.51L83.52 6.51Q84.03 5.61 84.92 5.10L84.92 5.10L84.92 5.10Q85.82 4.59 86.93 4.59L86.93 4.59ZM86.93 5.38L86.93 5.38Q86.06 5.38 85.36 5.79L85.36 5.79L85.36 5.79Q84.66 6.20 84.25 6.92L84.25 6.92L84.25 6.92Q83.85 7.63 83.85 8.51L83.85 8.51L83.85 8.51Q83.85 9.39 84.25 10.11L84.25 10.11L84.25 10.11Q84.66 10.82 85.36 11.23L85.36 11.23L85.36 11.23Q86.06 11.63 86.93 11.63L86.93 11.63L86.93 11.63Q87.79 11.63 88.49 11.23L88.49 11.23L88.49 11.23Q89.19 10.82 89.59 10.11L89.59 10.11L89.59 10.11Q89.99 9.39 89.99 8.51L89.99 8.51L89.99 8.51Q89.99 7.63 89.59 6.92L89.59 6.92L89.59 6.92Q89.19 6.20 88.49 5.79L88.49 5.79L88.49 5.79Q87.79 5.38 86.93 5.38L86.93 5.38Z"></path></g><defs data-v-fde0c5aa=""><!----></defs><g data-v-fde0c5aa="" id="c05dcadb-068a-4d93-b4ae-350f07c37c49" stroke="none" fill="rgb(0, 45, 98)" transform="matrix(0.4726585560801094,0,0,0.4726585560801094,40,127.07606003011469)"><path clip-rule="evenodd" d="M0 17v63h100V17H0zm91 53H9V39h82v31z"></path><path clip-rule="evenodd" d="M59.375 53.643v3.125H81.25v-3.125H59.375zM21.875 66.143v-4.861l4.688-6.076-4.688-6.076v-4.861L30 55.205l-8.125 10.938z"></path></g><!----></svg>